<svg aria-hidden="true" style="position:absolute;width:0;height:0;overflow:hidden" xmlns="http://www.w3.org/2000/svg">
  <defs>
    <symbol id="about-cow" viewBox="0 0 31 32">
      <path d="M6.002.778c-.254.219-.979 1.733-1.24 2.559-.31 1.024-.416 1.791-.373 2.852.056 1.514.437 2.661 1.275 3.861.218.314.394.585.394.607 0 .015-.134.029-.303.029-.726 0-2.085.241-3.128.556C.972 11.739 0 12.609 0 13.582c0 .344.31.929.641 1.228.641.578 2.043 1.126 3.55 1.389.521.095 2.071.256 2.416.263.063 0 .085.336.085 1.44 0 .951.035 1.689.106 2.142.254 1.623 1.043 3.341 2.085 4.555l.359.417-.24.387c-.352.548-.486.965-.528 1.587-.106 1.492.824 2.815 2.62 3.744 3.423 1.777 8.742 1.082 10.735-1.404.972-1.214 1.085-2.603.317-3.861l-.239-.388.43-.519c.803-.965 1.324-1.93 1.719-3.151.331-1.038.458-2.04.458-3.627 0-.724.021-1.323.056-1.323.324-.007 1.881-.175 2.374-.263 1.515-.263 2.888-.804 3.55-1.389.331-.3.641-.885.641-1.228 0-1.082-1.099-1.96-3.142-2.486-.669-.175-1.93-.387-2.543-.424l-.289-.022.317-.439c.394-.534.888-1.572 1.078-2.252.535-1.967.204-4.255-.944-6.442-.479-.907-.81-1.119-1.198-.76-.148.139-.211.329-.352 1.016-.437 2.186-1.247 3.919-2.43 5.199l-.521.57H9.967l-.465-.505c-1.155-1.272-1.993-3.071-2.43-5.264-.141-.687-.204-.877-.352-1.016-.232-.212-.458-.205-.718.022zm.901 4.336c.373.819.838 1.587 1.388 2.296l.437.563-.458.344c-.43.329-.831.797-1.141 1.331l-.134.241-.338-.461c-1.155-1.594-1.444-3.546-.831-5.571.296-.98.289-.972.556-.124.127.409.366 1.031.521 1.382zm18.336-1.543c.289.87.402 1.565.402 2.464 0 1.331-.352 2.457-1.092 3.466l-.331.453-.247-.417c-.289-.512-.782-1.046-1.233-1.353-.19-.124-.338-.249-.338-.263 0-.022.134-.19.303-.373.782-.87 1.62-2.435 2.036-3.78.127-.417.254-.76.275-.76s.127.256.225.563zM21.64 8.916c.782.329 1.529 1.272 1.648 2.069.063.439.211.717.402.76.084.015.669.066 1.296.11 2.226.146 3.98.621 4.727 1.272.345.307.31.563-.106.877-.831.629-2.627 1.104-4.459 1.184-1.212.051-1.465.088-1.627.256-.12.124-.134.256-.134 1.579 0 1.791-.092 2.822-.317 3.656-.317 1.133-.944 2.34-1.677 3.195l-.303.351-.627-.373c-.761-.453-1.472-.746-2.325-.943-2.67-.636-5.621-.249-7.608 1.002l-.458.293-.289-.344c-.394-.461-1.014-1.448-1.261-2.003-.542-1.258-.704-2.281-.704-4.533 0-2.186.113-2.025-1.507-2.113-2.071-.11-3.649-.483-4.642-1.111-.733-.468-.613-.885.409-1.375.979-.475 2.325-.76 4.191-.877 1.451-.095 1.486-.117 1.62-.819.197-1.06.979-1.938 1.965-2.215.246-.073 1.627-.088 5.854-.08l5.53.015.401.168zm-3.959 15.135c1.726.424 3.015 1.214 3.571 2.193.134.227.19.461.218.819.028.446.007.556-.162.921-.782 1.66-3.656 2.756-6.579 2.508-3.515-.293-5.826-2.252-4.917-4.175.493-1.038 2.163-2.033 3.924-2.325.289-.044.578-.095.634-.11s.69-.015 1.409 0c.979.022 1.451.066 1.902.168z"/>
      <path d="M10.693 12.579c-.437.146-.733.336-1.127.731-.345.329-.373.717-.085.95.268.219.521.19.845-.095.409-.358.726-.504 1.12-.504.394-.007.697.132 1.12.504.324.285.578.314.845.095.141-.117.183-.212.183-.431 0-.227-.049-.329-.296-.578-.697-.702-1.733-.972-2.606-.673zm8.213-.008c-.451.168-1.029.548-1.261.833-.225.278-.232.592 0 .826.232.249.514.234.852-.044.831-.687 1.451-.709 2.219-.073.197.168.423.3.493.3.345 0 .627-.307.627-.673 0-.234-.585-.775-1.113-1.031-.585-.285-1.282-.336-1.817-.139zm-7.192 13.535c-.204.197-.275.483-.169.709.078.183.197.256.683.388.218.058.31.132.387.314.099.241.106.241.648.263l.542.022v-.205c-.007-.293-.169-.717-.38-1.009-.247-.336-.676-.556-1.162-.6-.331-.029-.416-.015-.549.117zm6.728-.052c-.352.095-.859.57-1 .943-.063.168-.127.468-.134.665-.014.314.014.388.183.541.416.366.965.08.965-.504 0-.285.211-.483.585-.556.394-.073.535-.234.542-.607 0-.49-.437-.68-1.141-.483z"/>
    </symbol>
    <symbol id="about-ice-crema" viewBox="0 0 32 32">
      <path d="M16.108.107c.08.214.241 1.252.241 1.573 0 .797-.295 1.54-.837 2.122-.449.482-.897.75-1.975 1.185-1.198.489-1.694.783-2.256 1.339-.569.569-.904 1.192-1.024 1.921-.134.797 0 1.359.408 1.68l.208.161-.328.208c-.663.435-1.868 1.459-2.075 1.774-.402.603-.361 1.165.094 1.392l.214.107-.241.228c-.361.341-.435.576-.382 1.192.033.408.02.629-.074.964-.114.435-.114.442.033.75.147.301.562.683.937.843.181.08.187.107.228.723.02.355.053 1.486.08 2.517.02 1.031.067 1.975.107 2.089.033.121.161.281.274.361.388.268.656.556.83.89.194.382.408 1.319 1.058 4.559l.455 2.276.281.268c.536.529 1.56.77 3.247.77 1.694 0 2.705-.234 3.24-.763l.288-.274.415-2.109c.917-4.613.997-4.867 1.714-5.436.221-.181.435-.402.475-.502.047-.114.094-.991.127-2.316.027-1.178.067-2.343.094-2.591l.04-.449.435-.328c.549-.422.763-.803.763-1.393-.007-.696-.462-1.459-1.292-2.142l-.395-.321.194-.274c.81-1.118.301-2.664-1.205-3.695l-.455-.315.167-.174c.743-.797.864-3.173.241-4.827-.375-.984-1.232-2.055-2.283-2.845C17.659.857 16.239 0 16.112 0c-.027 0-.027.047-.007.107zm1.928 2.336c.355.348.783.823.951 1.064.997 1.392 1.252 3.14.649 4.425-.241.522-.964 1.299-1.633 1.761-1.024.71-3.327 1.901-4.934 2.557-2.584 1.051-4.084 1.252-4.258.562-.067-.261.127-.469.951-1.018.743-.509 4.077-2.986 4.137-3.086.02-.027-.321.127-.75.341-1.453.736-2.142.596-2.109-.428.02-.743.556-1.587 1.299-2.069.187-.12.77-.388 1.305-.603 1.761-.71 2.296-1.071 2.892-1.962.355-.529.743-1.506.77-1.921.007-.147.034-.261.054-.261s.321.288.676.636zm1.828 7.606c.489.274.997.743 1.218 1.111.388.663.187 1.325-.649 2.169-.91.924-2.464 1.808-4.171 2.37-1.573.515-3.079.756-5.235.83l-1.339.047.87.054c1.125.074 3.3.007 4.144-.127 2.243-.355 4.151-1.064 5.516-2.042.308-.221.629-.402.716-.402.221 0 1.185.924 1.379 1.312.107.221.134.382.114.596-.1.89-1.185 1.366-3.802 1.68-3.2.382-7.384.007-9.172-.817-.844-.388-.984-.609-.77-1.198.067-.187.08-.408.054-.723-.033-.415-.027-.469.12-.623.335-.361.897-.569 2.959-1.091.723-.187 1.707-.482 2.176-.656 1.138-.415 3.274-1.493 4.264-2.156.93-.616 1.064-.643 1.607-.335zm-8.89 8.194c1.406.408 2.651.529 4.967.482 1.741-.034 2.812-.141 4.358-.415.315-.053.589-.1.623-.1.074 0 .053 2.571-.027 3.247-.087.716-.281 1.272-.489 1.406-.214.141-1.285.288-2.718.368-2.939.161-5.958 0-6.895-.375-.509-.207-.562-.475-.569-2.959 0-1.654.013-1.881.1-1.848.053.02.348.107.649.194zm1.586 5.69c.482.06 1.004.121 1.165.141l.288.034-.254.281c-.328.355-.83 1.064-1.011 1.426-.207.415-.274.442-.582.274l-.261-.147-.147-.91c-.08-.495-.167-.971-.187-1.051-.06-.174-.12-.174.991-.047zm7.137-.074c0 .013-.033.187-.067.382-.04.201-.208 1.292-.375 2.43-.341 2.377-.569 3.495-.777 3.869-.288.502-.977.797-2.095.89-.435.034-1.747-.053-1.821-.12-.053-.06 1.098-1.486 1.279-1.58.167-.094.214-.08.783.214.663.348.997.402.997.181s-.174-.435-.602-.73c-.395-.281-.536-.442-.536-.629 0-.053.194-.355.428-.669s.576-.817.75-1.118l.328-.542.301.04c.609.087.77.08.75-.053-.013-.067-.127-.261-.254-.422-.127-.167-.228-.335-.228-.368 0-.127.623-1.299.823-1.546.174-.214.315-.321.315-.228zm-4.184.536c.335.221 1.593 1.312 1.674 1.446.034.06-1.259 2.082-1.513 2.37-.027.034-.167-.033-.308-.141-.141-.114-.663-.475-1.165-.803l-.904-.596.542-.917c.964-1.613.944-1.587 1.151-1.587.107 0 .341.1.522.228zm2.537.241c-.234.288-.428.469-.509.469-.174 0-.455-.154-.93-.502l-.395-.288.79-.047c.428-.02.844-.047.917-.06.536-.087.536-.08.127.428zm-5.061 3.22c.616.241 1.66.81 1.962 1.064.214.174.214.187.127.402-.054.121-.234.442-.415.716-.174.268-.375.602-.449.743-.214.415-.281.449-.723.328-.475-.141-.73-.382-.864-.817-.181-.609-.469-2.33-.435-2.598.013-.1.295-.04.797.161z"/>
    </symbol>
    <symbol id="about-weight" viewBox="0 0 32 32">
      <path d="M14.177.547c-3.974.589-7.247 2.796-8.451 5.685-.384.913-.488 1.473-.488 2.573.007.812.037 1.114.162 1.552.259.863.443 1.301.827 1.919l.355.575-.399.489c-3.154 3.924-3.502 9.444-.872 13.793.982 1.632 2.585 3.234 4.152 4.169l.465.273 12.743-.108.303-.165c1.056-.597 2.549-1.926 3.383-3.004 1.256-1.639 2.076-3.551 2.423-5.621.118-.74.118-2.932-.007-3.63-.377-2.149-1.182-3.989-2.453-5.621-.244-.309-.436-.568-.436-.589 0-.014.133-.237.288-.489.362-.575.687-1.315.864-1.962.199-.719.199-2.516 0-3.234-.709-2.552-2.837-4.679-5.843-5.851C20.351.97 18.91.618 17.98.503c-.864-.101-2.999-.079-3.804.043zm4.499 1.171c3.945.769 6.833 3.184 7.365 6.16.118.668.044 1.804-.155 2.437-.199.618-.569 1.344-1.005 1.962-.177.252-.325.539-.325.633s.155.338.377.582c1.847 2.048 2.822 4.614 2.822 7.389-.007 3.155-1.219 5.922-3.553 8.093-.399.374-.968.841-1.271 1.042l-.554.374-12.211.05-.473-.302c-1.714-1.114-3.258-2.954-4.115-4.909-1.079-2.472-1.189-5.34-.31-7.913.465-1.337 1.086-2.429 2.031-3.579.384-.46.561-.733.561-.863 0-.108-.192-.46-.443-.827-.886-1.287-1.248-2.717-1.034-4.068.222-1.366.842-2.487 1.987-3.601 1.492-1.445 3.575-2.401 6.02-2.76 1.012-.151 3.25-.093 4.285.101z"/>
      <path d="M14.51 2.983c-3.029.496-5.4 2.178-6.176 4.384-.177.496-.207.69-.207 1.402s.03.906.207 1.402c.111.316.318.755.458.978.384.618.554.64 1.315.18 1.138-.697 2.445-1.207 3.804-1.488.916-.187 2.674-.259 3.671-.144 1.559.18 3.25.74 4.602 1.538.384.223.776.41.872.41.561 0 1.278-1.617 1.278-2.875 0-2.796-2.674-5.189-6.464-5.786-.805-.129-2.585-.129-3.361 0zm3.656 1.15c1.271.273 2.438.791 3.317 1.473 1.182.913 1.817 2.185 1.714 3.414-.037.489-.222 1.15-.332 1.222-.029.014-.443-.158-.916-.388-.983-.474-2.098-.855-3.228-1.1-.687-.144-.975-.165-2.512-.158-1.514 0-1.832.022-2.489.158-1.138.244-2.024.546-3.117 1.064-1.101.525-1.042.532-1.241-.115-.258-.841-.096-1.955.406-2.796.266-.446.997-1.186 1.529-1.553 1.012-.697 1.899-1.013 3.804-1.358.391-.072 2.563.029 3.066.137zm-1.204 9.272c-.207.259-.207.503.007.712.14.137.281.172.79.208.99.072 1.935.359 2.785.848.606.359 1.529 1.229 1.943 1.854.613.898 1.034 2.185 1.034 3.134 0 .331.029.431.185.575.236.237.547.237.776 0 .163-.165.17-.208.125-.913-.207-3.479-3.184-6.383-6.744-6.577l-.739-.043-.163.201z"/>
    </symbol>
    <symbol id="socials-facebook" viewBox="0 0 16 32">
      <path d="M14.143 15.972h-4.034v14.865H3.997V15.972H1.09v-5.224h2.907V7.367c0-2.418 1.142-6.203 6.166-6.203l4.527.019v5.071h-3.285c-.539 0-1.296.271-1.296 1.424v3.075h4.567l-.534 5.219z"/>
    </symbol>
    <symbol id="socials-github" viewBox="0 0 32 32">
      <path d="M16 0C7.212 0 0 7.212 0 16c0 7.499 5.262 14.312 12.25 16v-5.293c-.692.152-1.33.156-2.034-.052-.946-.279-1.714-.909-2.284-1.869-.364-.613-1.008-1.278-1.68-1.23l-.165-1.868c1.453-.124 2.711.886 3.457 2.14.332.558.713.884 1.203 1.029.473.14.982.072 1.574-.137.149-1.186.692-1.63 1.102-2.255v-.001c-4.167-.622-5.828-2.832-6.488-4.578-.874-2.317-.405-5.212 1.14-7.041.03-.036.084-.129.063-.194-.708-2.139.155-3.909.187-4.097.817.242.95-.243 3.551 1.337l.449.27c.188.112.129.048.317.034 1.086-.295 2.23-.458 3.358-.472 1.136.015 2.273.178 3.404.484l.145.015c-.013-.002.04-.009.127-.062 3.248-1.968 3.132-1.324 4.003-1.608.032.188.883 1.987.182 4.099-.095.291 2.816 2.956 1.203 7.235-.659 1.746-2.32 3.957-6.487 4.578v.001c.534.814 1.176 1.247 1.173 2.927V32C26.738 30.312 32 23.499 32 16c0-8.788-7.212-16-16-16z"/>
    </symbol>
    <symbol id="socials-telegram" viewBox="0 0 44 32">
      <path d="m17.346 21.048-.675 8.86c.966 0 1.384-.387 1.885-.852l4.527-4.038 9.381 6.412c1.72.895 2.933.424 3.397-1.477l6.158-26.929.002-.002c.546-2.374-.92-3.302-2.596-2.72L3.231 13.235c-2.47.895-2.433 2.18-.42 2.762l9.253 2.686L33.558 6.131c1.011-.625 1.931-.279 1.175.346l-17.386 14.57z"/>
    </symbol>
    <symbol id="arrow-one" viewBox="0 0 32 32">
      <path fill="none" stroke-width="5.3333" stroke-linecap="round" stroke-linejoin="round" d="M10.667 5.333 23.867 16l-13.2 10.667"/>
    </symbol>
    <symbol id="arrow-default" viewBox="0 0 82 32">
      <path d="M81.414 17.414c.781-.781.781-2.047 0-2.828L68.686 1.858c-.781-.781-2.047-.781-2.828 0s-.781 2.047 0 2.828L77.172 16 65.858 27.314c-.781.781-.781 2.047 0 2.828s2.047.781 2.828 0l12.728-12.728zM0 18h80v-4H0v4z"/>
    </symbol>
    <symbol id="arrow-hover" viewBox="0 0 82 32">
      <path d="M81.414 17.414c.781-.781.781-2.047 0-2.828L68.686 1.858c-.781-.781-2.047-.781-2.828 0s-.781 2.047 0 2.828L77.172 16 65.858 27.314c-.781.781-.781 2.047 0 2.828s2.047.781 2.828 0l12.728-12.728zM0 18h80v-4H0v4z"/>
    </symbol>
    <symbol id="arrow-focus" viewBox="0 0 102 32">
      <path d="M101.414 17.414c.781-.781.781-2.047 0-2.828L88.686 1.858c-.781-.781-2.047-.781-2.828 0s-.781 2.047 0 2.828L97.172 16 85.858 27.314c-.781.781-.781 2.047 0 2.828s2.047.781 2.828 0l12.728-12.728zM0 18h100v-4H0v4z"/>
    </symbol>
    <symbol id="icon-close" viewBox="0 0 32 32">
      <path d="m17.253 16 7.369-7.369c.146-.17.222-.389.213-.613s-.101-.436-.26-.594c-.158-.158-.37-.251-.594-.26s-.442.067-.612.213L16 14.746 8.631 7.368c-.167-.167-.394-.261-.631-.261s-.464.094-.631.261c-.167.167-.261.394-.261.631s.094.464.261.631l7.378 7.369-7.378 7.369c-.093.08-.169.178-.222.288s-.083.23-.088.353c-.005.123.016.245.061.359s.112.218.199.304c.087.087.19.154.304.199s.236.065.359.06c.122-.005.243-.035.353-.088s.208-.129.288-.222l7.378-7.369 7.369 7.369c.17.146.389.222.612.213s.436-.101.594-.26c.158-.158.251-.37.26-.594s-.067-.442-.213-.612l-7.369-7.369z"/>
    </symbol>

    <symbol id="icon-facebook" viewBox="0 0 32 32">

    <symbol id="icon-youtube" viewBox="0 0 32 32">
    <path  d="M29.897 13.806l-26.537-13.269c-0.358-0.166-0.752-0.24-1.146-0.214s-0.775 0.148-1.109 0.359c-0.334 0.21-0.61 0.5-0.803 0.845s-0.297 0.731-0.302 1.126v26.526c-0.003 0.405 0.098 0.804 0.294 1.158s0.48 0.652 0.825 0.865 0.738 0.333 1.143 0.349c0.405 0.016 0.807-0.073 1.167-0.258l26.469-13.269c0.392-0.197 0.722-0.499 0.952-0.872s0.352-0.803 0.352-1.242-0.122-0.869-0.352-1.242c-0.23-0.373-0.56-0.675-0.952-0.872v0.011z"></path>
    </symbol>
    <!-- !!!! -->
<path fill="#f8d24e" style="fill: var(--color1, #f8d24e)" d="M16 32c8.837 0 16-7.163 16-16s-7.163-16-16-16c-8.837 0-16 7.163-16 16s7.163 16 16 16z"></path>
<path  d="M20.446 15.982h-2.61v9.619h-3.955v-9.619h-1.881v-3.38h1.881v-2.187c0-1.564 0.739-4.014 3.99-4.014l2.929 0.012v3.281h-2.125c-0.349 0-0.839 0.175-0.839 0.921v1.989h2.955l-0.346 3.377z"></path>
</symbol>
<symbol id="icon-telegram" viewBox="0 0 32 32">
<path fill="#f8d24e" style="fill: var(--color1, #f8d24e)" d="M32 16c0 8.837-7.163 16-16 16s-16-7.163-16-16c0-8.837 7.163-16 16-16s16 7.163 16 16z"></path>
<path  d="M12.867 18.375l-0.318 4.169c0.454 0 0.651-0.182 0.887-0.401l2.13-1.9 4.415 3.017c0.81 0.421 1.38 0.199 1.599-0.695l2.898-12.672 0.001-0.001c0.257-1.117-0.433-1.554-1.222-1.28l-17.032 6.086c-1.162 0.421-1.145 1.026-0.198 1.3l4.355 1.264 10.115-5.907c0.476-0.294 0.909-0.131 0.553 0.163l-8.182 6.857z"></path>
</symbol>
<symbol id="icon-github" viewBox="0 0 32 32">
<path fill="#f8d24e" style="fill: var(--color1, #f8d24e)" d="M32 16c0 8.837-7.163 16-16 16s-16-7.163-16-16c0-8.837 7.163-16 16-16s16 7.163 16 16z"></path>
<path  d="M16 6.588c-5.169 0-9.412 4.242-9.412 9.412 0 4.411 3.095 8.419 7.206 9.412v-3.114c-0.407 0.089-0.782 0.092-1.197-0.030-0.556-0.164-1.008-0.535-1.344-1.1-0.214-0.361-0.593-0.752-0.988-0.723l-0.097-1.099c0.855-0.073 1.595 0.521 2.034 1.259 0.195 0.328 0.419 0.52 0.708 0.605 0.278 0.082 0.578 0.043 0.926-0.080 0.088-0.698 0.407-0.959 0.648-1.326v-0.001c-2.451-0.366-3.428-1.666-3.816-2.693-0.514-1.363-0.238-3.066 0.671-4.142 0.018-0.021 0.050-0.076 0.037-0.114-0.417-1.258 0.091-2.299 0.11-2.41 0.481 0.142 0.559-0.143 2.089 0.786l0.264 0.159c0.111 0.066 0.076 0.028 0.186 0.020 0.639-0.173 1.312-0.269 1.975-0.278 0.668 0.009 1.337 0.104 2.002 0.285l0.086 0.009c-0.007-0.001 0.023-0.005 0.075-0.036 1.911-1.157 1.842-0.779 2.355-0.946 0.019 0.111 0.519 1.169 0.107 2.411-0.056 0.171 1.657 1.739 0.708 4.256-0.388 1.027-1.365 2.328-3.816 2.693v0.001c0.314 0.479 0.692 0.734 0.69 1.722v3.887c4.111-0.993 7.206-5 7.206-9.412 0-5.169-4.242-9.412-9.412-9.412v0z"></path>
</symbol>
<!-- !!!!!! -->
<symbol id="icon-youtube" viewBox="0 0 32 32">
<path  d="M29.897 13.806l-26.537-13.269c-0.358-0.166-0.752-0.24-1.146-0.214s-0.775 0.148-1.109 0.359c-0.334 0.21-0.61 0.5-0.803 0.845s-0.297 0.731-0.302 1.126v26.526c-0.003 0.405 0.098 0.804 0.294 1.158s0.48 0.652 0.825 0.865 0.738 0.333 1.143 0.349c0.405 0.016 0.807-0.073 1.167-0.258l26.469-13.269c0.392-0.197 0.722-0.499 0.952-0.872s0.352-0.803 0.352-1.242-0.122-0.869-0.352-1.242c-0.23-0.373-0.56-0.675-0.952-0.872v0.011z"></path>
</symbol>
<!-- !!!!!! -->
<symbol id="icon-burger-close" viewBox="0 0 32 32">
<path d="M23.884 6.706l-7.884 7.884-7.884-7.884c-0.19-0.174-0.439-0.267-0.696-0.261s-0.502 0.11-0.684 0.292c-0.182 0.182-0.286 0.427-0.292 0.684s0.088 0.506 0.261 0.696l7.88 7.884-7.882 7.882c-0.096 0.092-0.173 0.202-0.226 0.324s-0.081 0.253-0.083 0.386 0.023 0.265 0.073 0.388c0.050 0.123 0.124 0.235 0.218 0.329s0.206 0.169 0.329 0.219 0.255 0.075 0.388 0.074c0.133-0.002 0.264-0.029 0.386-0.082s0.232-0.13 0.324-0.226l7.886-7.882 7.884 7.884c0.19 0.174 0.439 0.267 0.696 0.262s0.502-0.11 0.684-0.292c0.182-0.182 0.286-0.427 0.292-0.684s-0.088-0.506-0.262-0.696l-7.884-7.884 7.884-7.886c0.096-0.092 0.173-0.202 0.226-0.324s0.081-0.253 0.083-0.386c0.002-0.133-0.023-0.265-0.073-0.388s-0.124-0.235-0.218-0.329c-0.094-0.094-0.206-0.169-0.329-0.219s-0.255-0.075-0.388-0.074-0.264 0.029-0.386 0.082c-0.122 0.053-0.232 0.13-0.324 0.226v0.002z"></path>
</symbol>


<symbol id="icon-burger" viewBox="0 0 32 32">
<path fill="none" stroke="#fff" style="stroke: var(--color2, #fff)" stroke-linejoin="miter" stroke-linecap="round" stroke-miterlimit="4" stroke-width="2" d="M6 10h20"></path>
<path fill="none" stroke="#fff" style="stroke: var(--color2, #fff)" stroke-linejoin="miter" stroke-linecap="round" stroke-miterlimit="4" stroke-width="2" d="M6 16h20"></path>
<path fill="none" stroke="#fff" style="stroke: var(--color2, #fff)" stroke-linejoin="miter" stroke-linecap="round" stroke-miterlimit="4" stroke-width="2" d="M6 22h20"></path>
</symbol>

<symbol id="icon-dots-sm-1" viewBox="0 0 205 32">
<path d="M155.332 29.617c0 0.982-0.764 1.779-1.706 1.779s-1.706-0.796-1.706-1.779c0-0.982 0.764-1.779 1.706-1.779s1.706 0.796 1.706 1.779z"></path>
<path d="M159.029 27.245c0 0.982-0.764 1.779-1.706 1.779s-1.706-0.796-1.706-1.779c0-0.982 0.764-1.779 1.706-1.779s1.706 0.796 1.706 1.779z"></path>
<path d="M163.292 24.578c0 0.982-0.764 1.779-1.706 1.779s-1.706-0.796-1.706-1.779c0-0.982 0.764-1.779 1.706-1.779s1.706 0.796 1.706 1.779z"></path>
<path d="M167.273 22.207c0 0.982-0.764 1.779-1.706 1.779s-1.706-0.796-1.706-1.779c0-0.982 0.764-1.779 1.706-1.779s1.706 0.796 1.706 1.779z"></path>
<path d="M164.998 28.431c0 0.982-0.764 1.779-1.706 1.779s-1.706-0.796-1.706-1.779c0-0.982 0.764-1.779 1.706-1.779s1.706 0.796 1.706 1.779z"></path>
<path d="M168.694 26.060c0 0.982-0.764 1.779-1.706 1.779s-1.706-0.796-1.706-1.779c0-0.982 0.764-1.779 1.706-1.779s1.706 0.796 1.706 1.779z"></path>
<path d="M172.957 23.392c0 0.982-0.764 1.779-1.706 1.779s-1.706-0.796-1.706-1.779c0-0.982 0.764-1.779 1.706-1.779s1.706 0.796 1.706 1.779z"></path>
<path d="M176.939 21.021c0 0.982-0.764 1.779-1.706 1.779s-1.706-0.796-1.706-1.779c0-0.982 0.764-1.779 1.706-1.779s1.706 0.796 1.706 1.779z"></path>
<path d="M173.243 27.542c0 0.982-0.764 1.779-1.706 1.779s-1.706-0.796-1.706-1.779c0-0.982 0.764-1.779 1.706-1.779s1.706 0.796 1.706 1.779z"></path>
<path d="M176.94 25.171c0 0.982-0.764 1.779-1.706 1.779s-1.706-0.796-1.706-1.779c0-0.982 0.764-1.779 1.706-1.779s1.706 0.796 1.706 1.779z"></path>
<path d="M181.204 22.503c0 0.982-0.764 1.779-1.706 1.779s-1.706-0.796-1.706-1.779c0-0.982 0.764-1.779 1.706-1.779s1.706 0.796 1.706 1.779z"></path>
<path d="M185.183 20.132c0 0.982-0.764 1.779-1.706 1.779s-1.706-0.796-1.706-1.779c0-0.982 0.764-1.779 1.706-1.779s1.706 0.796 1.706 1.779z"></path>
<path d="M181.203 26.356c0 0.982-0.764 1.779-1.706 1.779s-1.706-0.796-1.706-1.779c0-0.982 0.764-1.779 1.706-1.779s1.706 0.796 1.706 1.779z"></path>
<path d="M184.897 23.985c0 0.982-0.764 1.779-1.706 1.779s-1.706-0.796-1.706-1.779c0-0.982 0.764-1.779 1.706-1.779s1.706 0.796 1.706 1.779z"></path>
<path d="M189.162 21.318c0 0.982-0.764 1.779-1.706 1.779s-1.706-0.796-1.706-1.779c0-0.982 0.764-1.779 1.706-1.779s1.706 0.796 1.706 1.779z"></path>
<path d="M193.142 18.947c0 0.982-0.764 1.779-1.706 1.779s-1.706-0.796-1.706-1.779c0-0.982 0.764-1.779 1.706-1.779s1.706 0.796 1.706 1.779z"></path>
<path d="M183.762 29.617c0 0.982-0.764 1.779-1.706 1.779s-1.706-0.796-1.706-1.779c0-0.982 0.764-1.779 1.706-1.779s1.706 0.796 1.706 1.779z"></path>
<path d="M187.458 27.245c0 0.982-0.764 1.779-1.706 1.779s-1.706-0.796-1.706-1.779c0-0.982 0.764-1.779 1.706-1.779s1.706 0.796 1.706 1.779z"></path>
<path d="M192.575 29.913c0 0.982-0.764 1.779-1.706 1.779s-1.706-0.796-1.706-1.779c0-0.982 0.764-1.779 1.706-1.779s1.706 0.796 1.706 1.779z"></path>
<path d="M191.723 24.578c0 0.982-0.764 1.779-1.706 1.779s-1.706-0.796-1.706-1.779c0-0.982 0.764-1.779 1.706-1.779s1.706 0.796 1.706 1.779z"></path>
<path d="M196.84 27.245c0 0.982-0.764 1.779-1.706 1.779s-1.706-0.796-1.706-1.779c0-0.982 0.764-1.779 1.706-1.779s1.706 0.796 1.706 1.779z"></path>
<path d="M200.82 29.913c0 0.982-0.764 1.779-1.706 1.779s-1.706-0.796-1.706-1.779c0-0.982 0.764-1.779 1.706-1.779s1.706 0.796 1.706 1.779z"></path>
<path d="M195.702 22.207c0 0.982-0.764 1.779-1.706 1.779s-1.706-0.796-1.706-1.779c0-0.982 0.764-1.779 1.706-1.779s1.706 0.796 1.706 1.779z"></path>
<path d="M200.82 24.874c0 0.982-0.764 1.779-1.706 1.779s-1.706-0.796-1.706-1.779c0-0.982 0.764-1.779 1.706-1.779s1.706 0.796 1.706 1.779z"></path>
<path d="M204.8 27.542c0 0.982-0.764 1.779-1.706 1.779s-1.706-0.796-1.706-1.779c0-0.982 0.764-1.779 1.706-1.779s1.706 0.796 1.706 1.779z"></path>
<path d="M137.992 10.055c0 0.982-0.764 1.779-1.706 1.779s-1.706-0.796-1.706-1.779c0-0.982 0.764-1.779 1.706-1.779s1.706 0.796 1.706 1.779z"></path>
<path d="M141.688 7.684c0 0.982-0.764 1.779-1.706 1.779s-1.706-0.796-1.706-1.779c0-0.982 0.764-1.779 1.706-1.779s1.706 0.796 1.706 1.779z"></path>
<path d="M145.953 5.016c0 0.982-0.764 1.779-1.706 1.779s-1.706-0.796-1.706-1.779c0-0.982 0.764-1.779 1.706-1.779s1.706 0.796 1.706 1.779z"></path>
<path d="M149.932 2.645c0 0.982-0.764 1.779-1.706 1.779s-1.706-0.796-1.706-1.779c0-0.982 0.764-1.779 1.706-1.779s1.706 0.796 1.706 1.779z"></path>
<path d="M130.884 9.758c0 0.982-0.764 1.779-1.706 1.779s-1.706-0.796-1.706-1.779c0-0.982 0.764-1.779 1.706-1.779s1.706 0.796 1.706 1.779z"></path>
<path d="M134.579 7.387c0 0.982-0.764 1.779-1.706 1.779s-1.706-0.796-1.706-1.779c0-0.982 0.764-1.779 1.706-1.779s1.706 0.796 1.706 1.779z"></path>
<path d="M138.844 4.72c0 0.982-0.764 1.779-1.706 1.779s-1.706-0.796-1.706-1.779c0-0.982 0.764-1.779 1.706-1.779s1.706 0.796 1.706 1.779z"></path>
<path d="M142.824 2.349c0 0.982-0.764 1.779-1.706 1.779s-1.706-0.796-1.706-1.779c0-0.982 0.764-1.779 1.706-1.779s1.706 0.796 1.706 1.779z"></path>
<path d="M146.804 29.617c0 0.982-0.764 1.779-1.706 1.779s-1.706-0.796-1.706-1.779c0-0.982 0.764-1.779 1.706-1.779s1.706 0.796 1.706 1.779z"></path>
<path d="M150.499 27.245c0 0.982-0.764 1.779-1.706 1.779s-1.706-0.796-1.706-1.779c0-0.982 0.764-1.779 1.706-1.779s1.706 0.796 1.706 1.779z"></path>
<path d="M154.763 24.578c0 0.982-0.764 1.779-1.706 1.779s-1.706-0.796-1.706-1.779c0-0.982 0.764-1.779 1.706-1.779s1.706 0.796 1.706 1.779z"></path>
<path d="M158.744 22.207c0 0.982-0.764 1.779-1.706 1.779s-1.706-0.796-1.706-1.779c0-0.982 0.764-1.779 1.706-1.779s1.706 0.796 1.706 1.779z"></path>
<path d="M142.256 27.839c0 0.982-0.764 1.779-1.706 1.779s-1.706-0.796-1.706-1.779c0-0.982 0.764-1.779 1.706-1.779s1.706 0.796 1.706 1.779z"></path>
<path d="M145.951 25.468c0 0.982-0.764 1.779-1.706 1.779s-1.706-0.796-1.706-1.779c0-0.982 0.764-1.779 1.706-1.779s1.706 0.796 1.706 1.779z"></path>
<path d="M150.215 22.799c0 0.982-0.764 1.779-1.706 1.779s-1.706-0.796-1.706-1.779c0-0.982 0.764-1.779 1.706-1.779s1.706 0.796 1.706 1.779z"></path>
<path d="M154.196 20.429c0 0.982-0.764 1.779-1.706 1.779s-1.706-0.796-1.706-1.779c0-0.982 0.764-1.779 1.706-1.779s1.706 0.796 1.706 1.779z"></path>
<path d="M143.962 21.614c0 0.982-0.764 1.779-1.706 1.779s-1.706-0.796-1.706-1.779c0-0.982 0.764-1.779 1.706-1.779s1.706 0.796 1.706 1.779z"></path>
<path d="M147.656 19.243c0 0.982-0.764 1.779-1.706 1.779s-1.706-0.796-1.706-1.779c0-0.982 0.764-1.779 1.706-1.779s1.706 0.796 1.706 1.779z"></path>
<path d="M151.922 16.575c0 0.982-0.764 1.779-1.706 1.779s-1.706-0.796-1.706-1.779c0-0.982 0.764-1.779 1.706-1.779s1.706 0.796 1.706 1.779z"></path>
<path d="M155.901 14.204c0 0.982-0.764 1.779-1.706 1.779s-1.706-0.796-1.706-1.779c0-0.982 0.764-1.779 1.706-1.779s1.706 0.796 1.706 1.779z"></path>
<path d="M143.962 11.24c0 0.982-0.764 1.779-1.706 1.779s-1.706-0.796-1.706-1.779c0-0.982 0.764-1.779 1.706-1.779s1.706 0.796 1.706 1.779z"></path>
<path d="M147.656 8.869c0 0.982-0.764 1.779-1.706 1.779s-1.706-0.796-1.706-1.779c0-0.982 0.764-1.779 1.706-1.779s1.706 0.796 1.706 1.779z"></path>
<path d="M151.922 6.202c0 0.982-0.764 1.779-1.706 1.779s-1.706-0.796-1.706-1.779c0-0.982 0.764-1.779 1.706-1.779s1.706 0.796 1.706 1.779z"></path>
<path d="M155.901 3.83c0 0.982-0.764 1.779-1.706 1.779s-1.706-0.796-1.706-1.779c0-0.982 0.764-1.779 1.706-1.779s1.706 0.796 1.706 1.779z"></path>
<path d="M143.108 16.872c0 0.982-0.764 1.779-1.706 1.779s-1.706-0.796-1.706-1.779c0-0.982 0.764-1.779 1.706-1.779s1.706 0.796 1.706 1.779z"></path>
<path d="M146.804 14.5c0 0.982-0.764 1.779-1.706 1.779s-1.706-0.796-1.706-1.779c0-0.982 0.764-1.779 1.706-1.779s1.706 0.796 1.706 1.779z"></path>
<path d="M151.068 11.834c0 0.982-0.764 1.779-1.706 1.779s-1.706-0.796-1.706-1.779c0-0.982 0.764-1.779 1.706-1.779s1.706 0.796 1.706 1.779z"></path>
<path d="M155.048 9.462c0 0.982-0.764 1.779-1.706 1.779s-1.706-0.796-1.706-1.779c0-0.982 0.764-1.779 1.706-1.779s1.706 0.796 1.706 1.779z"></path>
<path d="M125.198 8.276c0 0.982-0.764 1.779-1.706 1.779s-1.706-0.796-1.706-1.779c0-0.982 0.764-1.779 1.706-1.779s1.706 0.796 1.706 1.779z"></path>
<path d="M128.895 5.905c0 0.982-0.764 1.779-1.706 1.779s-1.706-0.796-1.706-1.779c0-0.982 0.764-1.779 1.706-1.779s1.706 0.796 1.706 1.779z"></path>
<path d="M133.159 3.238c0 0.982-0.764 1.779-1.706 1.779s-1.706-0.796-1.706-1.779c0-0.982 0.764-1.779 1.706-1.779s1.706 0.796 1.706 1.779z"></path>
<path d="M131.169 10.054c0.942 0 1.706-0.796 1.706-1.778s-0.764-1.779-1.706-1.779-1.706 0.796-1.706 1.779c0 0.982 0.764 1.778 1.706 1.778z"></path>
<path d="M52.732 21.475c0.145 0.985-0.504 1.906-1.449 2.057s-1.828-0.525-1.973-1.51c-0.145-0.985 0.504-1.906 1.449-2.057s1.828 0.525 1.973 1.51z"></path>
<path d="M56.090 18.504c0.145 0.985-0.504 1.906-1.449 2.057s-1.828-0.525-1.973-1.51c-0.145-0.985 0.504-1.906 1.449-2.057s1.828 0.525 1.973 1.51z"></path>
<path d="M59.974 15.144c0.145 0.985-0.504 1.906-1.449 2.057s-1.828-0.525-1.973-1.51c-0.145-0.985 0.504-1.906 1.449-2.057s1.828 0.525 1.973 1.51z"></path>
<path d="M63.617 12.128c0.145 0.985-0.504 1.906-1.449 2.057s-1.828-0.525-1.973-1.51c-0.145-0.985 0.504-1.906 1.449-2.057s1.828 0.525 1.973 1.51z"></path>
<path d="M2.132 19.067c0 0.997-0.779 1.805-1.741 1.805s-1.741-0.808-1.741-1.805c0-0.997 0.779-1.805 1.741-1.805s1.741 0.808 1.741 1.805z"></path>
<path d="M6.485 16.36c0 0.997-0.779 1.805-1.741 1.805s-1.741-0.808-1.741-1.805c0-0.997 0.779-1.805 1.741-1.805s1.741 0.808 1.741 1.805z"></path>
<path d="M10.546 13.953c0 0.997-0.779 1.805-1.741 1.805s-1.741-0.808-1.741-1.805c0-0.997 0.779-1.805 1.741-1.805s1.741 0.808 1.741 1.805z"></path>
<path d="M0.102 25.984c0 0.997-0.779 1.805-1.741 1.805s-1.741-0.808-1.741-1.805c0-0.997 0.779-1.805 1.741-1.805s1.741 0.808 1.741 1.805z"></path>
<path d="M3.874 23.578c0 0.997-0.779 1.805-1.741 1.805s-1.741-0.808-1.741-1.805c0-0.997 0.779-1.805 1.741-1.805s1.741 0.808 1.741 1.805z"></path>
<path d="M8.227 20.871c0 0.997-0.779 1.805-1.741 1.805s-1.741-0.808-1.741-1.805c0-0.997 0.779-1.805 1.741-1.805s1.741 0.808 1.741 1.805z"></path>
<path d="M12.287 18.465c0 0.997-0.779 1.805-1.741 1.805s-1.741-0.808-1.741-1.805c0-0.997 0.779-1.805 1.741-1.805s1.741 0.808 1.741 1.805z"></path>
<path d="M4.453 28.39c0 0.997-0.779 1.805-1.741 1.805s-1.741-0.808-1.741-1.805c0-0.997 0.779-1.805 1.741-1.805s1.741 0.808 1.741 1.805z"></path>
<path d="M8.225 25.984c0 0.997-0.779 1.805-1.741 1.805s-1.741-0.808-1.741-1.805c0-0.997 0.779-1.805 1.741-1.805s1.741 0.808 1.741 1.805z"></path>
<path d="M12.577 23.277c0 0.997-0.779 1.805-1.741 1.805s-1.741-0.808-1.741-1.805c0-0.997 0.779-1.805 1.741-1.805s1.741 0.808 1.741 1.805z"></path>
<path d="M16.637 20.871c0 0.997-0.779 1.805-1.741 1.805s-1.741-0.808-1.741-1.805c0-0.997 0.779-1.805 1.741-1.805s1.741 0.808 1.741 1.805z"></path>
<path d="M9.384 29.895c0 0.997-0.779 1.805-1.741 1.805s-1.741-0.808-1.741-1.805c0-0.997 0.779-1.805 1.741-1.805s1.741 0.808 1.741 1.805z"></path>
<path d="M13.156 27.488c0 0.997-0.779 1.805-1.741 1.805s-1.741-0.808-1.741-1.805c0-0.997 0.779-1.805 1.741-1.805s1.741 0.808 1.741 1.805z"></path>
<path d="M17.509 24.781c0 0.997-0.779 1.805-1.741 1.805s-1.741-0.808-1.741-1.805c0-0.997 0.779-1.805 1.741-1.805s1.741 0.808 1.741 1.805z"></path>
<path d="M21.569 22.375c0 0.997-0.779 1.805-1.741 1.805s-1.741-0.808-1.741-1.805c0-0.997 0.779-1.805 1.741-1.805s1.741 0.808 1.741 1.805z"></path>
<path d="M15.768 30.196c0 0.997-0.779 1.805-1.741 1.805s-1.741-0.808-1.741-1.805c0-0.997 0.779-1.805 1.741-1.805s1.741 0.808 1.741 1.805z"></path>
<path d="M19.539 27.789c0 0.997-0.779 1.805-1.741 1.805s-1.741-0.808-1.741-1.805c0-0.997 0.779-1.805 1.741-1.805s1.741 0.808 1.741 1.805z"></path>
<path d="M23.891 25.082c0 0.997-0.779 1.805-1.741 1.805s-1.741-0.808-1.741-1.805c0-0.997 0.779-1.805 1.741-1.805s1.741 0.808 1.741 1.805z"></path>
<path d="M27.952 22.676c0 0.997-0.779 1.805-1.741 1.805s-1.741-0.808-1.741-1.805c0-0.997 0.779-1.805 1.741-1.805s1.741 0.808 1.741 1.805z"></path>
<path d="M23.311 30.195c0 0.997-0.779 1.805-1.741 1.805s-1.741-0.808-1.741-1.805c0-0.997 0.779-1.805 1.741-1.805s1.741 0.808 1.741 1.805z"></path>
<path d="M27.082 27.789c0 0.997-0.779 1.805-1.741 1.805s-1.741-0.808-1.741-1.805c0-0.997 0.779-1.805 1.741-1.805s1.741 0.808 1.741 1.805z"></path>
<path d="M31.434 25.082c0 0.997-0.779 1.805-1.741 1.805s-1.741-0.808-1.741-1.805c0-0.997 0.779-1.805 1.741-1.805s1.741 0.808 1.741 1.805z"></path>
<path d="M35.496 22.676c0 0.997-0.779 1.805-1.741 1.805s-1.741-0.808-1.741-1.805c0-0.997 0.779-1.805 1.741-1.805s1.741 0.808 1.741 1.805z"></path>
<path d="M29.692 29.894c0 0.997-0.779 1.805-1.741 1.805s-1.741-0.808-1.741-1.805c0-0.997 0.779-1.805 1.741-1.805s1.741 0.808 1.741 1.805z"></path>
<path d="M33.463 27.488c0 0.997-0.779 1.805-1.741 1.805s-1.741-0.808-1.741-1.805c0-0.997 0.779-1.805 1.741-1.805s1.741 0.808 1.741 1.805z"></path>
<path d="M37.816 24.781c0 0.997-0.779 1.805-1.741 1.805s-1.741-0.808-1.741-1.805c0-0.997 0.779-1.805 1.741-1.805s1.741 0.808 1.741 1.805z"></path>
<path d="M41.876 22.375c0 0.997-0.779 1.805-1.741 1.805s-1.741-0.808-1.741-1.805c0-0.997 0.779-1.805 1.741-1.805s1.741 0.808 1.741 1.805z"></path>
<path d="M36.945 29.594c0 0.997-0.779 1.805-1.741 1.805s-1.741-0.808-1.741-1.805c0-0.997 0.779-1.805 1.741-1.805s1.741 0.808 1.741 1.805z"></path>
<path d="M40.716 27.187c0 0.997-0.779 1.805-1.741 1.805s-1.741-0.808-1.741-1.805c0-0.997 0.779-1.805 1.741-1.805s1.741 0.808 1.741 1.805z"></path>
<path d="M45.068 24.481c0 0.997-0.779 1.805-1.741 1.805s-1.741-0.808-1.741-1.805c0-0.997 0.779-1.805 1.741-1.805s1.741 0.808 1.741 1.805z"></path>
<path d="M49.129 22.074c0 0.997-0.779 1.805-1.741 1.805s-1.741-0.808-1.741-1.805c0-0.997 0.779-1.805 1.741-1.805s1.741 0.808 1.741 1.805z"></path>
<path d="M43.617 21.773c0 0.997-0.779 1.805-1.741 1.805s-1.741-0.808-1.741-1.805c0-0.997 0.779-1.805 1.741-1.805s1.741 0.808 1.741 1.805z"></path>
<path d="M47.388 19.367c0 0.997-0.779 1.805-1.741 1.805s-1.741-0.808-1.741-1.805c0-0.997 0.779-1.805 1.741-1.805s1.741 0.808 1.741 1.805z"></path>
<path d="M51.74 16.66c0 0.997-0.779 1.805-1.741 1.805s-1.741-0.808-1.741-1.805c0-0.997 0.779-1.805 1.741-1.805s1.741 0.808 1.741 1.805z"></path>
<path d="M55.802 14.254c0 0.997-0.779 1.805-1.741 1.805s-1.741-0.808-1.741-1.805c0-0.997 0.779-1.805 1.741-1.805s1.741 0.808 1.741 1.805z"></path>
</symbol>

<symbol id="icon-dots-md-1" viewBox="0 0 361 32">
<path d="M309.949 29.706c0 0.999-0.789 1.808-1.762 1.808s-1.762-0.809-1.762-1.808c0-0.999 0.789-1.808 1.762-1.808s1.762 0.809 1.762 1.808z"></path>
<path d="M313.767 27.295c0 0.999-0.789 1.808-1.762 1.808s-1.762-0.809-1.762-1.808c0-0.999 0.789-1.808 1.762-1.808s1.762 0.809 1.762 1.808z"></path>
<path d="M318.172 24.583c0 0.999-0.789 1.808-1.762 1.808s-1.762-0.809-1.762-1.808c0-0.999 0.789-1.808 1.762-1.808s1.762 0.809 1.762 1.808z"></path>
<path d="M322.284 22.172c0 0.999-0.789 1.808-1.762 1.808s-1.762-0.809-1.762-1.808c0-0.999 0.789-1.808 1.762-1.808s1.762 0.809 1.762 1.808z"></path>
<path d="M319.935 28.5c0 0.999-0.789 1.808-1.762 1.808s-1.762-0.809-1.762-1.808c0-0.999 0.789-1.808 1.762-1.808s1.762 0.809 1.762 1.808z"></path>
<path d="M323.752 26.090c0 0.999-0.789 1.808-1.762 1.808s-1.762-0.809-1.762-1.808c0-0.999 0.789-1.808 1.762-1.808s1.762 0.809 1.762 1.808z"></path>
<path d="M328.158 23.378c0 0.999-0.789 1.808-1.762 1.808s-1.762-0.809-1.762-1.808c0-0.999 0.789-1.808 1.762-1.808s1.762 0.809 1.762 1.808z"></path>
<path d="M332.27 20.967c0 0.999-0.789 1.808-1.762 1.808s-1.762-0.809-1.762-1.808c0-0.999 0.789-1.808 1.762-1.808s1.762 0.809 1.762 1.808z"></path>
<path d="M328.452 27.596c0 0.999-0.789 1.808-1.762 1.808s-1.762-0.809-1.762-1.808c0-0.999 0.789-1.808 1.762-1.808s1.762 0.809 1.762 1.808z"></path>
<path d="M332.27 25.185c0 0.999-0.789 1.808-1.762 1.808s-1.762-0.809-1.762-1.808c0-0.999 0.789-1.808 1.762-1.808s1.762 0.809 1.762 1.808z"></path>
<path d="M336.675 22.473c0 0.999-0.789 1.808-1.762 1.808s-1.762-0.809-1.762-1.808c0-0.999 0.789-1.808 1.762-1.808s1.762 0.809 1.762 1.808z"></path>
<path d="M340.786 20.063c0 0.999-0.789 1.808-1.762 1.808s-1.762-0.809-1.762-1.808c0-0.999 0.789-1.808 1.762-1.808s1.762 0.809 1.762 1.808z"></path>
<path d="M336.675 26.391c0 0.999-0.789 1.808-1.762 1.808s-1.762-0.809-1.762-1.808c0-0.999 0.789-1.808 1.762-1.808s1.762 0.809 1.762 1.808z"></path>
<path d="M340.493 23.98c0 0.999-0.789 1.808-1.762 1.808s-1.762-0.809-1.762-1.808c0-0.999 0.789-1.808 1.762-1.808s1.762 0.809 1.762 1.808z"></path>
<path d="M344.898 21.268c0 0.999-0.789 1.808-1.762 1.808s-1.762-0.809-1.762-1.808c0-0.999 0.789-1.808 1.762-1.808s1.762 0.809 1.762 1.808z"></path>
<path d="M349.010 18.858c0 0.999-0.789 1.808-1.762 1.808s-1.762-0.809-1.762-1.808c0-0.999 0.789-1.808 1.762-1.808s1.762 0.809 1.762 1.808z"></path>
<path d="M339.318 29.706c0 0.999-0.789 1.808-1.762 1.808s-1.762-0.809-1.762-1.808c0-0.999 0.789-1.808 1.762-1.808s1.762 0.809 1.762 1.808z"></path>
<path d="M343.136 27.295c0 0.999-0.789 1.808-1.762 1.808s-1.762-0.809-1.762-1.808c0-0.999 0.789-1.808 1.762-1.808s1.762 0.809 1.762 1.808z"></path>
<path d="M348.422 30.007c0 0.999-0.789 1.808-1.762 1.808s-1.762-0.809-1.762-1.808c0-0.999 0.789-1.808 1.762-1.808s1.762 0.809 1.762 1.808z"></path>
<path d="M347.541 24.583c0 0.999-0.789 1.808-1.762 1.808s-1.762-0.809-1.762-1.808c0-0.999 0.789-1.808 1.762-1.808s1.762 0.809 1.762 1.808z"></path>
<path d="M352.828 27.295c0 0.999-0.789 1.808-1.762 1.808s-1.762-0.809-1.762-1.808c0-0.999 0.789-1.808 1.762-1.808s1.762 0.809 1.762 1.808z"></path>
<path d="M356.939 30.007c0 0.999-0.789 1.808-1.762 1.808s-1.762-0.809-1.762-1.808c0-0.999 0.789-1.808 1.762-1.808s1.762 0.809 1.762 1.808z"></path>
<path d="M351.653 22.172c0 0.999-0.789 1.808-1.762 1.808s-1.762-0.809-1.762-1.808c0-0.999 0.789-1.808 1.762-1.808s1.762 0.809 1.762 1.808z"></path>
<path d="M356.939 24.884c0 0.999-0.789 1.808-1.762 1.808s-1.762-0.809-1.762-1.808c0-0.999 0.789-1.808 1.762-1.808s1.762 0.809 1.762 1.808z"></path>
<path d="M361.051 27.596c0 0.999-0.789 1.808-1.762 1.808s-1.762-0.809-1.762-1.808c0-0.999 0.789-1.808 1.762-1.808s1.762 0.809 1.762 1.808z"></path>
<path d="M292.034 9.818c0 0.999-0.789 1.808-1.762 1.808s-1.762-0.809-1.762-1.808c0-0.999 0.789-1.808 1.762-1.808s1.762 0.809 1.762 1.808z"></path>
<path d="M295.852 7.408c0 0.999-0.789 1.808-1.762 1.808s-1.762-0.809-1.762-1.808c0-0.999 0.789-1.808 1.762-1.808s1.762 0.809 1.762 1.808z"></path>
<path d="M300.258 4.696c0 0.999-0.789 1.808-1.762 1.808s-1.762-0.809-1.762-1.808c0-0.999 0.789-1.808 1.762-1.808s1.762 0.809 1.762 1.808z"></path>
<path d="M304.368 2.285c0 0.999-0.789 1.808-1.762 1.808s-1.762-0.809-1.762-1.808c0-0.999 0.789-1.808 1.762-1.808s1.762 0.809 1.762 1.808z"></path>
<path d="M284.692 9.516c0 0.999-0.789 1.808-1.762 1.808s-1.762-0.809-1.762-1.808c0-0.999 0.789-1.808 1.762-1.808s1.762 0.809 1.762 1.808z"></path>
<path d="M288.51 7.106c0 0.999-0.789 1.808-1.762 1.808s-1.762-0.809-1.762-1.808c0-0.999 0.789-1.808 1.762-1.808s1.762 0.809 1.762 1.808z"></path>
<path d="M292.915 4.394c0 0.999-0.789 1.808-1.762 1.808s-1.762-0.809-1.762-1.808c0-0.999 0.789-1.808 1.762-1.808s1.762 0.809 1.762 1.808z"></path>
<path d="M297.027 1.984c0 0.999-0.789 1.808-1.762 1.808s-1.762-0.809-1.762-1.808c0-0.999 0.789-1.808 1.762-1.808s1.762 0.809 1.762 1.808z"></path>
<path d="M301.139 29.706c0 0.999-0.789 1.808-1.762 1.808s-1.762-0.809-1.762-1.808c0-0.999 0.789-1.808 1.762-1.808s1.762 0.809 1.762 1.808z"></path>
<path d="M304.956 27.295c0 0.999-0.789 1.808-1.762 1.808s-1.762-0.809-1.762-1.808c0-0.999 0.789-1.808 1.762-1.808s1.762 0.809 1.762 1.808z"></path>
<path d="M309.362 24.583c0 0.999-0.789 1.808-1.762 1.808s-1.762-0.809-1.762-1.808c0-0.999 0.789-1.808 1.762-1.808s1.762 0.809 1.762 1.808z"></path>
<path d="M313.474 22.172c0 0.999-0.789 1.808-1.762 1.808s-1.762-0.809-1.762-1.808c0-0.999 0.789-1.808 1.762-1.808s1.762 0.809 1.762 1.808z"></path>
<path d="M296.44 27.898c0 0.999-0.789 1.808-1.762 1.808s-1.762-0.809-1.762-1.808c0-0.999 0.789-1.808 1.762-1.808s1.762 0.809 1.762 1.808z"></path>
<path d="M300.258 25.487c0 0.999-0.789 1.808-1.762 1.808s-1.762-0.809-1.762-1.808c0-0.999 0.789-1.808 1.762-1.808s1.762 0.809 1.762 1.808z"></path>
<path d="M304.663 22.775c0 0.999-0.789 1.808-1.762 1.808s-1.762-0.809-1.762-1.808c0-0.999 0.789-1.808 1.762-1.808s1.762 0.809 1.762 1.808z"></path>
<path d="M308.775 20.365c0 0.999-0.789 1.808-1.762 1.808s-1.762-0.809-1.762-1.808c0-0.999 0.789-1.808 1.762-1.808s1.762 0.809 1.762 1.808z"></path>
<path d="M298.201 21.57c0 0.999-0.789 1.808-1.762 1.808s-1.762-0.809-1.762-1.808c0-0.999 0.789-1.808 1.762-1.808s1.762 0.809 1.762 1.808z"></path>
<path d="M302.019 19.16c0 0.999-0.789 1.808-1.762 1.808s-1.762-0.809-1.762-1.808c0-0.999 0.789-1.808 1.762-1.808s1.762 0.809 1.762 1.808z"></path>
<path d="M306.425 16.447c0 0.999-0.789 1.808-1.762 1.808s-1.762-0.809-1.762-1.808c0-0.999 0.789-1.808 1.762-1.808s1.762 0.809 1.762 1.808z"></path>
<path d="M310.536 14.037c0 0.999-0.789 1.808-1.762 1.808s-1.762-0.809-1.762-1.808c0-0.999 0.789-1.808 1.762-1.808s1.762 0.809 1.762 1.808z"></path>
<path d="M298.201 11.024c0 0.999-0.789 1.808-1.762 1.808s-1.762-0.809-1.762-1.808c0-0.999 0.789-1.808 1.762-1.808s1.762 0.809 1.762 1.808z"></path>
<path d="M302.019 8.613c0 0.999-0.789 1.808-1.762 1.808s-1.762-0.809-1.762-1.808c0-0.999 0.789-1.808 1.762-1.808s1.762 0.809 1.762 1.808z"></path>
<path d="M306.425 5.901c0 0.999-0.789 1.808-1.762 1.808s-1.762-0.809-1.762-1.808c0-0.999 0.789-1.808 1.762-1.808s1.762 0.809 1.762 1.808z"></path>
<path d="M310.536 3.49c0 0.999-0.789 1.808-1.762 1.808s-1.762-0.809-1.762-1.808c0-0.999 0.789-1.808 1.762-1.808s1.762 0.809 1.762 1.808z"></path>
<path d="M297.321 16.749c0 0.999-0.789 1.808-1.762 1.808s-1.762-0.809-1.762-1.808c0-0.999 0.789-1.808 1.762-1.808s1.762 0.809 1.762 1.808z"></path>
<path d="M301.139 14.338c0 0.999-0.789 1.808-1.762 1.808s-1.762-0.809-1.762-1.808c0-0.999 0.789-1.808 1.762-1.808s1.762 0.809 1.762 1.808z"></path>
<path d="M305.544 11.626c0 0.999-0.789 1.808-1.762 1.808s-1.762-0.809-1.762-1.808c0-0.999 0.789-1.808 1.762-1.808s1.762 0.809 1.762 1.808z"></path>
<path d="M309.656 9.216c0 0.999-0.789 1.808-1.762 1.808s-1.762-0.809-1.762-1.808c0-0.999 0.789-1.808 1.762-1.808s1.762 0.809 1.762 1.808z"></path>
<path d="M278.819 8.010c0 0.999-0.789 1.808-1.762 1.808s-1.762-0.809-1.762-1.808c0-0.999 0.789-1.808 1.762-1.808s1.762 0.809 1.762 1.808z"></path>
<path d="M282.637 5.6c0 0.999-0.789 1.808-1.762 1.808s-1.762-0.809-1.762-1.808c0-0.999 0.789-1.808 1.762-1.808s1.762 0.809 1.762 1.808z"></path>
<path d="M287.042 2.888c0 0.999-0.789 1.808-1.762 1.808s-1.762-0.809-1.762-1.808c0-0.999 0.789-1.808 1.762-1.808s1.762 0.809 1.762 1.808z"></path>
<path d="M284.986 9.818c0.973 0 1.762-0.809 1.762-1.808s-0.789-1.808-1.762-1.808-1.762 0.809-1.762 1.808 0.789 1.808 1.762 1.808z"></path>
<path d="M3.525 28.466c0 0.999-0.789 1.808-1.762 1.808s-1.762-0.809-1.762-1.808c0-0.999 0.789-1.808 1.762-1.808s1.762 0.809 1.762 1.808z"></path>
<path d="M7.342 26.055c0 0.999-0.789 1.808-1.762 1.808s-1.762-0.809-1.762-1.808c0-0.999 0.789-1.808 1.762-1.808s1.762 0.809 1.762 1.808z"></path>
<path d="M11.748 23.344c0 0.999-0.789 1.808-1.762 1.808s-1.762-0.809-1.762-1.808c0-0.999 0.789-1.808 1.762-1.808s1.762 0.809 1.762 1.808z"></path>
<path d="M15.859 20.933c0 0.999-0.789 1.808-1.762 1.808s-1.762-0.809-1.762-1.808c0-0.999 0.789-1.808 1.762-1.808s1.762 0.809 1.762 1.808z"></path>
<path d="M25.845 29.37c0 0.999-0.789 1.808-1.762 1.808s-1.762-0.809-1.762-1.808c0-0.999 0.789-1.808 1.762-1.808s1.762 0.809 1.762 1.808z"></path>
<path d="M29.663 26.959c0 0.999-0.789 1.808-1.762 1.808s-1.762-0.809-1.762-1.808c0-0.999 0.789-1.808 1.762-1.808s1.762 0.809 1.762 1.808z"></path>
<path d="M34.068 24.248c0 0.999-0.789 1.808-1.762 1.808s-1.762-0.809-1.762-1.808c0-0.999 0.789-1.808 1.762-1.808s1.762 0.809 1.762 1.808z"></path>
<path d="M38.179 21.837c0 0.999-0.789 1.808-1.762 1.808s-1.762-0.809-1.762-1.808c0-0.999 0.789-1.808 1.762-1.808s1.762 0.809 1.762 1.808z"></path>
<path d="M34.949 28.164c0 0.999-0.789 1.808-1.762 1.808s-1.762-0.809-1.762-1.808c0-0.999 0.789-1.808 1.762-1.808s1.762 0.809 1.762 1.808z"></path>
<path d="M38.767 25.754c0 0.999-0.789 1.808-1.762 1.808s-1.762-0.809-1.762-1.808c0-0.999 0.789-1.808 1.762-1.808s1.762 0.809 1.762 1.808z"></path>
<path d="M43.172 23.042c0 0.999-0.789 1.808-1.762 1.808s-1.762-0.809-1.762-1.808c0-0.999 0.789-1.808 1.762-1.808s1.762 0.809 1.762 1.808z"></path>
<path d="M47.284 20.631c0 0.999-0.789 1.808-1.762 1.808s-1.762-0.809-1.762-1.808c0-0.999 0.789-1.808 1.762-1.808s1.762 0.809 1.762 1.808z"></path>
<path d="M51.689 17.016c0 0.999-0.789 1.808-1.762 1.808s-1.762-0.809-1.762-1.808c0-0.999 0.789-1.808 1.762-1.808s1.762 0.809 1.762 1.808z"></path>
<path d="M42.291 19.125c0 0.999-0.789 1.808-1.762 1.808s-1.762-0.809-1.762-1.808c0-0.999 0.789-1.808 1.762-1.808s1.762 0.809 1.762 1.808z"></path>
<path d="M17.622 29.069c0 0.999-0.789 1.808-1.762 1.808s-1.762-0.809-1.762-1.808c0-0.999 0.789-1.808 1.762-1.808s1.762 0.809 1.762 1.808z"></path>
<path d="M21.44 26.658c0 0.999-0.789 1.808-1.762 1.808s-1.762-0.809-1.762-1.808c0-0.999 0.789-1.808 1.762-1.808s1.762 0.809 1.762 1.808z"></path>
<path d="M25.845 23.946c0 0.999-0.789 1.808-1.762 1.808s-1.762-0.809-1.762-1.808c0-0.999 0.789-1.808 1.762-1.808s1.762 0.809 1.762 1.808z"></path>
<path d="M29.956 21.536c0 0.999-0.789 1.808-1.762 1.808s-1.762-0.809-1.762-1.808c0-0.999 0.789-1.808 1.762-1.808s1.762 0.809 1.762 1.808z"></path>
<path d="M10.28 28.767c0 0.999-0.789 1.808-1.762 1.808s-1.762-0.809-1.762-1.808c0-0.999 0.789-1.808 1.762-1.808s1.762 0.809 1.762 1.808z"></path>
<path d="M14.097 26.356c0 0.999-0.789 1.808-1.762 1.808s-1.762-0.809-1.762-1.808c0-0.999 0.789-1.808 1.762-1.808s1.762 0.809 1.762 1.808z"></path>
<path d="M18.503 23.645c0 0.999-0.789 1.808-1.762 1.808s-1.762-0.809-1.762-1.808c0-0.999 0.789-1.808 1.762-1.808s1.762 0.809 1.762 1.808z"></path>
<path d="M22.614 21.234c0 0.999-0.789 1.808-1.762 1.808s-1.762-0.809-1.762-1.808c0-0.999 0.789-1.808 1.762-1.808s1.762 0.809 1.762 1.808z"></path>
</symbol>

<symbol id="icon-dots-lg-1" viewBox="0 0 100 32">
<path d="M45.691 25.73c0 0.287-0.218 0.519-0.487 0.519s-0.487-0.232-0.487-0.519c0-0.287 0.218-0.519 0.487-0.519s0.487 0.232 0.487 0.519z"></path>
<path d="M46.827 25.038c0 0.287-0.218 0.519-0.487 0.519s-0.487-0.232-0.487-0.519c0-0.287 0.218-0.519 0.487-0.519s0.487 0.232 0.487 0.519z"></path>
<path d="M44.798 27.633c0 0.287-0.218 0.519-0.487 0.519s-0.487-0.232-0.487-0.519c0-0.287 0.218-0.519 0.487-0.519s0.487 0.232 0.487 0.519z"></path>
<path d="M45.853 26.941c0 0.287-0.218 0.519-0.487 0.519s-0.487-0.232-0.487-0.519c0-0.287 0.218-0.519 0.487-0.519s0.487 0.232 0.487 0.519z"></path>
<path d="M47.070 26.163c0 0.287-0.218 0.519-0.487 0.519s-0.487-0.232-0.487-0.519c0-0.287 0.218-0.519 0.487-0.519s0.487 0.232 0.487 0.519z"></path>
<path d="M48.206 25.471c0 0.287-0.218 0.519-0.487 0.519s-0.487-0.232-0.487-0.519c0-0.287 0.218-0.519 0.487-0.519s0.487 0.232 0.487 0.519z"></path>
<path d="M46.583 27.72c0 0.287-0.218 0.519-0.487 0.519s-0.487-0.232-0.487-0.519c0-0.287 0.218-0.519 0.487-0.519s0.487 0.232 0.487 0.519z"></path>
<path d="M47.638 27.028c0 0.287-0.218 0.519-0.487 0.519s-0.487-0.232-0.487-0.519c0-0.287 0.218-0.519 0.487-0.519s0.487 0.232 0.487 0.519z"></path>
<path d="M48.856 26.249c0 0.287-0.218 0.519-0.487 0.519s-0.487-0.232-0.487-0.519c0-0.287 0.218-0.519 0.487-0.519s0.487 0.232 0.487 0.519z"></path>
<path d="M49.992 25.557c0 0.287-0.218 0.519-0.487 0.519s-0.487-0.232-0.487-0.519c0-0.287 0.218-0.519 0.487-0.519s0.487 0.232 0.487 0.519z"></path>
<path d="M48.693 27.72c0 0.287-0.218 0.519-0.487 0.519s-0.487-0.232-0.487-0.519c0-0.287 0.218-0.519 0.487-0.519s0.487 0.232 0.487 0.519z"></path>
<path d="M49.748 27.028c0 0.287-0.218 0.519-0.487 0.519s-0.487-0.232-0.487-0.519c0-0.287 0.218-0.519 0.487-0.519s0.487 0.232 0.487 0.519z"></path>
<path d="M50.966 26.249c0 0.287-0.218 0.519-0.487 0.519s-0.487-0.232-0.487-0.519c0-0.287 0.218-0.519 0.487-0.519s0.487 0.232 0.487 0.519z"></path>
<path d="M52.102 25.557c0 0.287-0.218 0.519-0.487 0.519s-0.487-0.232-0.487-0.519c0-0.287 0.218-0.519 0.487-0.519s0.487 0.232 0.487 0.519z"></path>
<path d="M50.479 27.633c0 0.287-0.218 0.519-0.487 0.519s-0.487-0.232-0.487-0.519c0-0.287 0.218-0.519 0.487-0.519s0.487 0.232 0.487 0.519z"></path>
<path d="M51.534 26.941c0 0.287-0.218 0.519-0.487 0.519s-0.487-0.232-0.487-0.519c0-0.287 0.218-0.519 0.487-0.519s0.487 0.232 0.487 0.519z"></path>
<path d="M52.751 26.163c0 0.287-0.218 0.519-0.487 0.519s-0.487-0.232-0.487-0.519c0-0.287 0.218-0.519 0.487-0.519s0.487 0.232 0.487 0.519z"></path>
<path d="M53.887 25.471c0 0.287-0.218 0.519-0.487 0.519s-0.487-0.232-0.487-0.519c0-0.287 0.218-0.519 0.487-0.519s0.487 0.232 0.487 0.519z"></path>
<path d="M52.508 27.547c0 0.287-0.218 0.519-0.487 0.519s-0.487-0.232-0.487-0.519c0-0.287 0.218-0.519 0.487-0.519s0.487 0.232 0.487 0.519z"></path>
<path d="M53.563 26.855c0 0.287-0.218 0.519-0.487 0.519s-0.487-0.232-0.487-0.519c0-0.287 0.218-0.519 0.487-0.519s0.487 0.232 0.487 0.519z"></path>
<path d="M54.78 26.076c0 0.287-0.218 0.519-0.487 0.519s-0.487-0.232-0.487-0.519c0-0.287 0.218-0.519 0.487-0.519s0.487 0.232 0.487 0.519z"></path>
<path d="M55.916 25.384c0 0.287-0.218 0.519-0.487 0.519s-0.487-0.232-0.487-0.519c0-0.287 0.218-0.519 0.487-0.519s0.487 0.232 0.487 0.519z"></path>
<path d="M54.374 25.298c0 0.287-0.218 0.519-0.487 0.519s-0.487-0.232-0.487-0.519c0-0.287 0.218-0.519 0.487-0.519s0.487 0.232 0.487 0.519z"></path>
<path d="M55.429 24.606c0 0.287-0.218 0.519-0.487 0.519s-0.487-0.232-0.487-0.519c0-0.287 0.218-0.519 0.487-0.519s0.487 0.232 0.487 0.519z"></path>
<path d="M56.647 23.827c0 0.287-0.218 0.519-0.487 0.519s-0.487-0.232-0.487-0.519c0-0.287 0.218-0.519 0.487-0.519s0.487 0.232 0.487 0.519z"></path>
<path d="M57.783 23.135c0 0.287-0.218 0.519-0.487 0.519s-0.487-0.232-0.487-0.519c0-0.287 0.218-0.519 0.487-0.519s0.487 0.232 0.487 0.519z"></path>
</symbol>

  </defs>
</svg>
